<svg width="37" height="30" viewBox="0 0 37 30" fill="none" xmlns="http://www.w3.org/2000/svg">
<path d="M36.1481 16.7839C36.1481 26.0542 31.7344 30 18.0741 30C4.41371 30 0 26.0542 0 16.7839C0 7.5136 8.09047 0 18.0741 0C28.0576 0 36.1481 7.51632 36.1481 16.7839Z" fill="#A5E15F"/>
<path d="M18.0741 1.63162C27.1525 1.63162 34.546 8.43002 34.546 16.7839C34.546 21.1349 33.5367 23.8352 31.2725 25.562C28.7652 27.4656 24.5705 28.3684 18.0741 28.3684C11.5777 28.3684 7.39356 27.4764 4.87564 25.562C2.61137 23.8352 1.60207 21.1294 1.60207 16.7839C1.60207 8.43002 8.9903 1.63162 18.0741 1.63162V1.63162ZM18.0741 0C8.09047 0 0 7.51632 0 16.7839C0 26.0515 4.41371 30 18.0741 30C31.7344 30 36.1481 26.0542 36.1481 16.7839C36.1481 7.5136 28.055 0 18.0741 0Z" fill="white"/>
<path d="M25.5551 8.82982C21.6647 9.235 21.1361 12.7593 18.1696 12.7919C15.203 12.8246 14.5595 9.21869 10.5624 8.82982C10.0844 8.78359 7.71335 8.57148 5.80421 10.1188C3.03796 12.3623 3.27561 16.8465 3.44382 18.2905C3.44382 18.2905 6.58656 21.1512 9.85212 21.1839C12.103 21.2084 14.5275 19.8242 15.8252 18.9703C16.4811 18.5287 17.2497 18.2924 18.036 18.2905H18.0654C18.8526 18.2923 19.622 18.5286 20.2789 18.9703C24.1159 21.5238 24.7087 21.1458 26.2493 21.1839C29.4535 21.2872 32.6576 18.2905 32.6576 18.2905C33.3572 14.9973 32.4681 11.8102 30.2973 10.1188C28.3347 8.57691 25.9423 8.79175 25.5551 8.82982Z" fill="#56CA45"/>
<path d="M5.40376 17.3495C5.40376 17.3495 4.33571 10.8883 9.84151 10.5973C15.3473 10.3064 15.0883 15.9164 14.9147 17.3495C14.9147 17.3495 12.6745 19.389 10.3355 19.4135C7.99645 19.438 5.40376 17.3495 5.40376 17.3495Z" fill="#1A1A1A"/>
<path d="M8.39182 15.1985C9.00086 15.1985 9.49458 14.6956 9.49458 14.0754C9.49458 13.4551 9.00086 12.9523 8.39182 12.9523C7.78278 12.9523 7.28906 13.4551 7.28906 14.0754C7.28906 14.6956 7.78278 15.1985 8.39182 15.1985Z" fill="white"/>
<path d="M10.7414 13.7654C11.1454 13.7654 11.473 13.4318 11.473 13.0203C11.473 12.6087 11.1454 12.2751 10.7414 12.2751C10.3373 12.2751 10.0098 12.6087 10.0098 13.0203C10.0098 13.4318 10.3373 13.7654 10.7414 13.7654Z" fill="white"/>
<path d="M30.7431 17.3495C30.7431 17.3495 31.8112 10.8883 26.3054 10.5973C20.7996 10.3064 21.0586 15.9164 21.2321 17.3495C21.2321 17.3495 23.4724 19.389 25.8114 19.4135C28.1504 19.438 30.7431 17.3495 30.7431 17.3495Z" fill="#1A1A1A"/>
<path d="M27.7561 15.1985C28.3651 15.1985 28.8588 14.6956 28.8588 14.0754C28.8588 13.4551 28.3651 12.9523 27.7561 12.9523C27.147 12.9523 26.6533 13.4551 26.6533 14.0754C26.6533 14.6956 27.147 15.1985 27.7561 15.1985Z" fill="white"/>
<path d="M25.4064 13.7654C25.8105 13.7654 26.138 13.4318 26.138 13.0203C26.138 12.6087 25.8105 12.2751 25.4064 12.2751C25.0024 12.2751 24.6748 12.6087 24.6748 13.0203C24.6748 13.4318 25.0024 13.7654 25.4064 13.7654Z" fill="white"/>
</svg>
