<svg width="16" height="16" viewBox="0 0 16 16" fill="none" xmlns="http://www.w3.org/2000/svg">
<path d="M5.026 14.7607C11.064 14.7607 14.367 9.7577 14.367 5.4267C14.367 5.2867 14.367 5.1447 14.361 5.0047C15.0041 4.53919 15.5591 3.96285 16 3.3027C15.3993 3.56755 14.7628 3.74211 14.111 3.8207C14.7975 3.41034 15.3117 2.76467 15.558 2.0037C14.913 2.38583 14.207 2.65408 13.471 2.7967C12.9762 2.26973 12.3214 1.92062 11.6081 1.80346C10.8948 1.6863 10.1627 1.80762 9.52534 2.14864C8.88796 2.48966 8.38081 3.03133 8.08245 3.68976C7.78409 4.34819 7.71118 5.08664 7.875 5.7907C6.56974 5.72525 5.29282 5.38617 4.12704 4.79545C2.96127 4.20472 1.93268 3.37555 1.108 2.3617C0.68934 3.08479 0.561574 3.9401 0.750646 4.75397C0.939718 5.56783 1.43145 6.27923 2.126 6.7437C1.60554 6.72602 1.09652 6.58626 0.64 6.3357V6.3807C0.640897 7.13818 0.903307 7.87212 1.38287 8.45846C1.86244 9.0448 2.52975 9.44758 3.272 9.5987C2.99026 9.67632 2.69923 9.71501 2.407 9.7137C2.20098 9.71433 1.99538 9.69524 1.793 9.6567C2.00279 10.3088 2.41127 10.8789 2.96125 11.2872C3.51122 11.6955 4.17513 11.9216 4.86 11.9337C3.69656 12.8475 2.2594 13.3431 0.78 13.3407C0.519321 13.3418 0.258823 13.3268 0 13.2957C1.50151 14.253 3.2453 14.7613 5.026 14.7607Z" fill="white"/>
</svg>
