<svg width="80" height="80" viewBox="0 0 80 80" fill="none" xmlns="http://www.w3.org/2000/svg">
<circle cx="40" cy="40" r="40" fill="#3BC862"/>
<path d="M60 41.6384C60 51.7893 55.116 56.1099 40 56.1099C24.884 56.1099 20 51.7893 20 41.6384C20 31.4875 28.9526 23.2603 40 23.2603C51.0474 23.2603 60 31.4905 60 41.6384Z" fill="#C2C640"/>
<path d="M40 25.0469C50.0458 25.0469 58.2272 32.491 58.2272 41.6384C58.2272 46.4027 57.1104 49.3595 54.6048 51.2503C51.8304 53.3347 47.1887 54.3233 40 54.3233C32.8113 54.3233 28.1814 53.3466 25.3952 51.2503C22.8896 49.3595 21.7728 46.3967 21.7728 41.6384C21.7728 32.491 29.9483 25.0469 40 25.0469ZM40 23.2603C28.9526 23.2603 20 31.4905 20 41.6384C20 51.7863 24.884 56.1099 40 56.1099C55.116 56.1099 60 51.7893 60 41.6384C60 31.4875 51.0445 23.2603 40 23.2603Z" fill="white"/>
<path d="M48.2784 32.9289C43.9735 33.3726 43.3885 37.2317 40.1058 37.2674C36.8232 37.3032 36.1112 33.3547 31.6881 32.9289C31.1592 32.8783 28.5355 32.646 26.4229 34.3404C23.3619 36.797 23.6248 41.7072 23.811 43.2883C23.811 43.2883 27.2886 46.4209 30.9021 46.4566C33.3929 46.4834 36.0757 44.9678 37.5117 44.0328C38.2375 43.5492 39.088 43.2904 39.9581 43.2883H39.9906C40.8617 43.2904 41.7131 43.5491 42.44 44.0328C46.6858 46.8288 47.3418 46.4149 49.0466 46.4566C52.5922 46.5698 56.1378 43.2883 56.1378 43.2883C56.9119 39.6823 55.928 36.1925 53.5259 34.3404C51.3542 32.652 48.7068 32.8872 48.2784 32.9289Z" fill="#00A576"/>
<path d="M25.98 42.2579C25.98 42.2579 24.7982 35.1831 30.8907 34.8645C36.9832 34.5459 36.6966 40.6887 36.5045 42.2579C36.5045 42.2579 34.0256 44.491 31.4373 44.5178C28.849 44.5446 25.98 42.2579 25.98 42.2579Z" fill="#1A1A1A"/>
<path d="M29.2857 39.9023C29.9596 39.9023 30.506 39.3518 30.506 38.6726C30.506 37.9934 29.9596 37.4429 29.2857 37.4429C28.6118 37.4429 28.0654 37.9934 28.0654 38.6726C28.0654 39.3518 28.6118 39.9023 29.2857 39.9023Z" fill="white"/>
<path d="M31.8858 38.333C32.3329 38.333 32.6953 37.9677 32.6953 37.5171C32.6953 37.0665 32.3329 36.7012 31.8858 36.7012C31.4386 36.7012 31.0762 37.0665 31.0762 37.5171C31.0762 37.9677 31.4386 38.333 31.8858 38.333Z" fill="white"/>
<path d="M54.0187 42.2579C54.0187 42.2579 55.2006 35.1831 49.1081 34.8645C43.0156 34.5459 43.3022 40.6887 43.4943 42.2579C43.4943 42.2579 45.9732 44.491 48.5615 44.5178C51.1498 44.5446 54.0187 42.2579 54.0187 42.2579Z" fill="#1A1A1A"/>
<path d="M50.7134 39.9023C51.3874 39.9023 51.9337 39.3518 51.9337 38.6726C51.9337 37.9934 51.3874 37.4429 50.7134 37.4429C50.0395 37.4429 49.4932 37.9934 49.4932 38.6726C49.4932 39.3518 50.0395 39.9023 50.7134 39.9023Z" fill="white"/>
<path d="M48.1133 38.333C48.5604 38.333 48.9229 37.9677 48.9229 37.5171C48.9229 37.0665 48.5604 36.7012 48.1133 36.7012C47.6662 36.7012 47.3037 37.0665 47.3037 37.5171C47.3037 37.9677 47.6662 38.333 48.1133 38.333Z" fill="white"/>
</svg>
