<svg width="80" height="80" viewBox="0 0 80 80" fill="none" xmlns="http://www.w3.org/2000/svg">
<g clip-path="url(#clip0_1700_16)">
<path d="M80 39.9999C80.0019 33.2836 78.3125 26.6749 75.0878 20.7834C71.863 14.8918 67.2067 9.90715 61.5482 6.28902C55.8898 2.6709 49.4114 0.535824 42.7105 0.0807162C36.0096 -0.374391 29.302 0.865119 23.2062 3.68493C17.1105 6.50474 11.823 10.8141 7.83124 16.2155C3.83951 21.6169 1.27211 27.9364 0.365837 34.5913C-0.540437 41.2462 0.243589 48.0222 2.64561 54.2943C5.04763 60.5664 8.9903 66.1327 14.11 70.4799V66.2999C14.1127 62.1695 15.7553 58.2093 18.6768 55.2896C21.5984 52.37 25.5597 50.7299 29.69 50.7299H50.69C54.8108 50.7431 58.7582 52.3894 61.6674 55.3079C64.5765 58.2264 66.21 62.1791 66.21 66.2999V70.1999C70.5419 66.4511 74.0156 61.8134 76.3952 56.6023C78.7747 51.3911 80.0042 45.7286 80 39.9999Z" fill="#5EBFEE"/>
<path d="M50.6404 50.73H29.6904C25.56 50.73 21.5987 52.3701 18.6772 55.2897C15.7556 58.2094 14.113 62.1696 14.1104 66.3V70.48C21.396 76.665 30.6554 80.037 40.2122 79.9856C49.769 79.9343 58.9916 76.4629 66.2104 70.2V66.3C66.2104 64.2553 65.8076 62.2306 65.0252 60.3416C64.2427 58.4526 63.0958 56.7361 61.65 55.2903C60.2042 53.8445 58.4878 52.6976 56.5987 51.9152C54.7097 51.1327 52.685 50.73 50.6404 50.73Z" fill="#DFF2FD"/>
<path d="M38.6002 56.7399L41.8802 56.7799L43.3402 52.6899L36.9902 52.6499L38.6002 56.7399Z" fill="#1A1A1A"/>
<path d="M44.2595 68.3599L44.1195 67.5999L43.6695 65.1899L41.8795 56.6599H41.7995H38.6095L36.4495 68.8599C36.3996 69.1142 36.3996 69.3757 36.4495 69.6299C36.5078 69.8943 36.6396 70.1369 36.8295 70.3299L37.2095 70.6699L38.8495 71.9999L39.8495 72.8699L39.9595 72.9699C40.0118 73.0247 40.0747 73.0683 40.1443 73.098C40.2139 73.1278 40.2888 73.1432 40.3645 73.1432C40.4402 73.1432 40.5152 73.1278 40.5848 73.098C40.6544 73.0683 40.7172 73.0247 40.7695 72.9699L43.8995 69.8299C44.0775 69.6523 44.1992 69.4263 44.2495 69.1799C44.3115 68.9105 44.315 68.6308 44.2595 68.3599Z" fill="#1A1A1A"/>
<path d="M59.7001 38.3199C59.7001 48.3199 54.9301 52.6099 40.1601 52.6099C25.3901 52.6099 20.6201 48.3399 20.6201 38.3199C20.6201 28.2999 29.3701 20.1699 40.1601 20.1699C50.9501 20.1699 59.7001 28.2999 59.7001 38.3199Z" fill="#C2C640"/>
<path d="M48.4398 29.5599C44.1298 30.0099 43.5498 33.9099 40.2698 33.9399C36.9898 33.9699 36.2698 29.9899 31.8498 29.5599C29.9737 29.3491 28.088 29.8644 26.5798 30.9999C23.8098 33.2499 23.7698 37.5299 23.9198 39.5099C23.934 39.6834 23.984 39.852 24.0666 40.0052C24.1492 40.1583 24.2627 40.2927 24.3998 40.3999C25.3998 41.2299 28.2098 43.2099 31.0598 43.2399C33.5498 43.2399 36.2398 41.7399 37.6698 40.7899C38.3892 40.2877 39.2425 40.0125 40.1198 39.9999C40.9929 40.0007 41.8459 40.2618 42.5698 40.7499C46.8198 43.5799 47.4698 43.1599 49.1798 43.1999C52.0598 43.2899 54.9398 41.1199 55.9198 40.3099C56.1477 40.1132 56.3027 39.8455 56.3598 39.5499C56.9598 36.0699 55.9598 32.7499 53.6598 30.9599C52.1505 29.8686 50.2926 29.3703 48.4398 29.5599Z" fill="#00A576"/>
<path d="M26.6398 39.3501C26.4743 39.2384 26.3369 39.09 26.238 38.9166C26.1392 38.7432 26.0816 38.5494 26.0698 38.3501C25.9498 36.6001 26.0698 31.7701 31.0698 31.5101C36.5798 31.2101 36.8698 36.2701 36.7398 38.4101C36.7252 38.5962 36.6713 38.7771 36.5817 38.9409C36.492 39.1046 36.3687 39.2475 36.2198 39.3601C34.9129 40.4425 33.3095 41.1047 31.6198 41.2601C29.813 41.105 28.0868 40.4429 26.6398 39.3501Z" fill="#1A1A1A"/>
<path d="M29.4495 36.61C29.698 36.616 29.9425 36.5477 30.152 36.4141C30.3614 36.2804 30.5263 36.0873 30.6255 35.8595C30.7248 35.6317 30.7539 35.3795 30.7091 35.135C30.6643 34.8906 30.5476 34.6651 30.3741 34.4873C30.2005 34.3094 29.9779 34.1874 29.7346 34.1367C29.4914 34.0859 29.2385 34.1089 29.0084 34.2026C28.7782 34.2962 28.5812 34.4564 28.4425 34.6625C28.3037 34.8687 28.2296 35.1115 28.2295 35.36C28.2269 35.6872 28.3536 36.0021 28.5821 36.2363C28.8106 36.4704 29.1224 36.6047 29.4495 36.61Z" fill="white"/>
<path d="M32.0503 35.0001C32.2157 35.0041 32.3785 34.9585 32.5178 34.8693C32.6571 34.7801 32.7666 34.6514 32.8322 34.4995C32.8978 34.3476 32.9165 34.1796 32.886 34.0171C32.8554 33.8545 32.777 33.7047 32.6607 33.587C32.5445 33.4694 32.3957 33.3891 32.2335 33.3566C32.0713 33.324 31.9031 33.3407 31.7505 33.4044C31.5978 33.4681 31.4677 33.576 31.3768 33.7143C31.2859 33.8525 31.2383 34.0147 31.2403 34.1801C31.2403 34.3958 31.3253 34.6029 31.4769 34.7564C31.6285 34.9099 31.8346 34.9975 32.0503 35.0001Z" fill="white"/>
<path d="M53.6902 39.3501C53.8527 39.2362 53.9874 39.0872 54.0844 38.914C54.1813 38.7409 54.238 38.5482 54.2502 38.3501C54.3702 36.6001 54.2502 31.7701 49.2502 31.5101C43.7402 31.2101 43.4502 36.2701 43.5802 38.4101C43.5948 38.5962 43.6486 38.7771 43.7383 38.9409C43.8279 39.1046 43.9513 39.2475 44.1002 39.3601C45.407 40.4425 47.0104 41.1047 48.7002 41.2601C50.51 41.1052 52.2395 40.4433 53.6902 39.3501Z" fill="#1A1A1A"/>
<path d="M50.8704 36.61C51.1188 36.616 51.3634 36.5477 51.5729 36.4141C51.7823 36.2804 51.9472 36.0873 52.0464 35.8595C52.1457 35.6317 52.1747 35.3795 52.13 35.135C52.0852 34.8906 51.9685 34.6651 51.795 34.4873C51.6214 34.3094 51.3988 34.1874 51.1555 34.1367C50.9123 34.0859 50.6594 34.1089 50.4293 34.2026C50.1991 34.2962 50.0021 34.4564 49.8634 34.6625C49.7246 34.8687 49.6505 35.1115 49.6504 35.36C49.6478 35.6872 49.7745 36.0021 50.003 36.2363C50.2315 36.4704 50.5433 36.6047 50.8704 36.61Z" fill="white"/>
<path d="M48.2698 35C48.4355 35.006 48.5992 34.9622 48.7398 34.8743C48.8804 34.7863 48.9915 34.6583 49.0586 34.5067C49.1258 34.355 49.146 34.1868 49.1166 34.0236C49.0872 33.8603 49.0096 33.7097 48.8938 33.591C48.778 33.4723 48.6293 33.391 48.4669 33.3576C48.3044 33.3242 48.1357 33.3402 47.9825 33.4036C47.8292 33.467 47.6985 33.5748 47.6071 33.7132C47.5157 33.8516 47.4679 34.0142 47.4698 34.18C47.4697 34.3941 47.5534 34.5997 47.7028 34.7529C47.8523 34.9061 48.0558 34.9948 48.2698 35Z" fill="white"/>
<path d="M40.1602 21.59C50.2102 21.59 58.3902 29.12 58.3902 38.36C58.3902 43.18 57.2702 46.16 54.7702 48.07C51.9902 50.18 47.3502 51.18 40.1602 51.18C32.9702 51.18 28.3402 50.18 25.5602 48.07C23.0502 46.16 21.9302 43.17 21.9302 38.36C21.9302 29.12 30.1102 21.59 40.1602 21.59ZM40.1602 19.79C29.1602 19.79 20.1602 28.11 20.1602 38.36C20.1602 48.61 25.0502 53 40.1602 53C55.2702 53 60.1602 48.63 60.1602 38.37C60.1602 28.11 51.2102 19.79 40.1602 19.79Z" fill="white"/>
<path d="M37.4805 53L36.7105 56.57C36.6849 56.6568 36.6406 56.7369 36.5807 56.8048C36.5209 56.8726 36.4469 56.9265 36.364 56.9627C36.2811 56.9989 36.1913 57.0166 36.1008 57.0144C36.0104 57.0122 35.9215 56.9902 35.8405 56.95C32.7823 55.1777 29.8305 53.2277 27.0005 51.11C24.7005 49.4 29.1805 51.42 29.1805 51.42L37.4805 53Z" fill="#A2B4C8"/>
<path d="M42.9404 52.93L43.7104 56.54C43.7345 56.6278 43.7779 56.7091 43.8374 56.778C43.897 56.8468 43.9712 56.9015 44.0546 56.9379C44.138 56.9744 44.2286 56.9917 44.3196 56.9886C44.4105 56.9855 44.4997 56.962 44.5804 56.92C47.8026 55.0692 50.9206 53.0428 53.9204 50.85C56.2304 49.13 51.2104 51.42 51.2104 51.42L42.9404 52.93Z" fill="#A2B4C8"/>
<path d="M37.7299 52.1801L36.7299 55.5401C36.7043 55.6269 36.66 55.707 36.6001 55.7748C36.5403 55.8427 36.4663 55.8966 36.3834 55.9328C36.3005 55.969 36.2107 55.9866 36.1202 55.9844C36.0298 55.9822 35.9409 55.9603 35.8599 55.9201C33.7299 54.8401 27.0399 51.4101 25.1099 49.9201C22.8099 48.2101 29.2299 50.3701 29.2299 50.3701L37.7299 52.1801Z" fill="white"/>
<path d="M42.6904 52.1801L43.6904 55.5401C43.7145 55.6279 43.7579 55.7092 43.8174 55.7781C43.877 55.8469 43.9512 55.9016 44.0346 55.938C44.118 55.9745 44.2086 55.9918 44.2996 55.9887C44.3905 55.9856 44.4797 55.9621 44.5604 55.9201C46.6904 54.8401 53.3804 51.4101 55.3104 49.9201C57.6104 48.2101 51.1904 50.3701 51.1904 50.3701L42.6904 52.1801Z" fill="white"/>
</g>
<defs>
<clipPath id="clip0_1700_16">
<rect width="80" height="80" fill="white"/>
</clipPath>
</defs>
</svg>
