<svg width="80" height="80" viewBox="0 0 80 80" fill="none" xmlns="http://www.w3.org/2000/svg">
<circle cx="40" cy="40" r="40" fill="#FF5823"/>
<path d="M19.3001 36.7801H20.5301V47.0001H19.3001C19.0245 47.0015 18.7514 46.9476 18.497 46.8415C18.2425 46.7355 18.012 46.5795 17.819 46.3827C17.626 46.186 17.4744 45.9525 17.3732 45.6961C17.2721 45.4397 17.2234 45.1656 17.2301 44.8901V38.8901C17.2234 38.6145 17.2721 38.3404 17.3732 38.084C17.4744 37.8276 17.626 37.5941 17.819 37.3974C18.012 37.2006 18.2425 37.0446 18.497 36.9386C18.7514 36.8325 19.0245 36.7786 19.3001 36.7801Z" fill="#1A1A1A"/>
<path d="M59.7598 46.96H58.5198V36.74H59.7598C60.3062 36.74 60.8302 36.957 61.2165 37.3433C61.6028 37.7296 61.8198 38.2536 61.8198 38.8V44.8C61.8334 45.0788 61.7901 45.3574 61.6927 45.619C61.5952 45.8806 61.4457 46.1197 61.253 46.3217C61.0603 46.5237 60.8286 46.6844 60.572 46.7942C60.3153 46.9039 60.039 46.9603 59.7598 46.96Z" fill="#1A1A1A"/>
<path d="M59.0002 41.66C59.0002 51.68 54.2202 56 39.4502 56C24.6802 56 19.9102 51.68 19.9102 41.66C19.9102 31.64 28.6602 23.51 39.4502 23.51C50.2402 23.51 59.0002 31.64 59.0002 41.66Z" fill="#C2C640"/>
<path d="M39.4502 24.9399C49.5002 24.9399 57.6802 32.4599 57.6802 41.6999C57.6802 46.5199 56.5602 49.4999 54.0602 51.4199C51.2802 53.5199 46.6402 54.5199 39.4502 54.5199C32.2602 54.5199 27.6402 53.5199 24.8502 51.4199C22.3402 49.4999 21.2302 46.5099 21.2302 41.6999C21.2302 32.4599 29.4002 24.9399 39.4502 24.9399ZM39.4502 23.1299C28.4502 23.1299 19.4502 31.4499 19.4502 41.6999C19.4502 51.9499 24.3402 56.3299 39.4502 56.3299C54.5602 56.3299 59.4502 51.9599 59.4502 41.6999C59.4502 31.4399 50.5002 23.1299 39.4502 23.1299Z" fill="#1A1A1A"/>
<path d="M47.7298 32.9C43.4298 33.35 42.8398 37.25 39.5598 37.28C36.2798 37.31 35.5598 33.33 31.1398 32.9C29.268 32.6859 27.3855 33.1977 25.8798 34.33C23.0998 36.58 23.0598 40.86 23.2098 42.84C23.2263 43.0129 23.2772 43.1807 23.3597 43.3336C23.4421 43.4864 23.5544 43.6212 23.6898 43.73C24.6898 44.56 27.4998 46.54 30.3598 46.57C32.8498 46.57 35.5298 45.07 36.9698 44.12C37.6893 43.6305 38.5396 43.3691 39.4098 43.37C40.2833 43.3677 41.1372 43.6291 41.8598 44.12C46.1098 46.95 46.7698 46.53 48.4698 46.57C51.3498 46.66 54.2298 44.5 55.2098 43.68C55.4408 43.4859 55.5965 43.217 55.6498 42.92C56.2498 39.44 55.2498 36.12 52.9498 34.33C51.4446 33.2281 49.5864 32.719 47.7298 32.9Z" fill="#00A576"/>
<path d="M25.9296 42.6899C25.7671 42.5761 25.6323 42.427 25.5354 42.2539C25.4384 42.0808 25.3817 41.888 25.3696 41.6899C25.2496 39.9399 25.3696 35.1099 30.3696 34.8499C35.8896 34.5499 36.1796 39.6099 36.0396 41.7499C36.0269 41.9365 35.9739 42.1181 35.8841 42.2822C35.7943 42.4462 35.6699 42.5887 35.5196 42.6999C34.2127 43.7823 32.6093 44.4446 30.9196 44.5999C29.1094 44.4467 27.3794 43.7845 25.9296 42.6899Z" fill="#1A1A1A"/>
<path d="M28.7396 39.9999C28.988 40.0058 29.2325 39.9376 29.442 39.804C29.6515 39.6703 29.8164 39.4772 29.9156 39.2494C30.0148 39.0216 30.0439 38.7694 29.9991 38.5249C29.9543 38.2805 29.8377 38.055 29.6641 37.8772C29.4906 37.6993 29.2679 37.5773 29.0247 37.5266C28.7814 37.4758 28.5286 37.4988 28.2984 37.5924C28.0682 37.6861 27.8712 37.8462 27.7325 38.0524C27.5938 38.2586 27.5196 38.5014 27.5196 38.7499C27.5169 39.077 27.6436 39.392 27.8721 39.6261C28.1007 39.8603 28.4124 39.9946 28.7396 39.9999Z" fill="white"/>
<path d="M31.3403 38.36C31.5057 38.3639 31.6685 38.3184 31.8078 38.2292C31.9471 38.14 32.0566 38.0112 32.1222 37.8594C32.1878 37.7075 32.2065 37.5395 32.176 37.3769C32.1454 37.2143 32.067 37.0646 31.9508 36.9469C31.8345 36.8292 31.6857 36.749 31.5236 36.7164C31.3614 36.6839 31.1931 36.7005 31.0405 36.7643C30.8878 36.828 30.7577 36.9359 30.6668 37.0741C30.5759 37.2123 30.5284 37.3745 30.5303 37.54C30.5303 37.7557 30.6153 37.9628 30.767 38.1163C30.9186 38.2698 31.1246 38.3573 31.3403 38.36Z" fill="white"/>
<path d="M53.0003 42.6899C53.1628 42.5761 53.2976 42.427 53.3945 42.2539C53.4915 42.0808 53.5481 41.888 53.5603 41.6899C53.6803 39.9399 53.5603 35.1099 48.5603 34.8499C43.0503 34.5499 42.7603 39.6099 42.9003 41.7499C42.9109 41.937 42.9631 42.1193 43.053 42.2837C43.143 42.448 43.2685 42.5902 43.4203 42.6999C44.7272 43.7823 46.3306 44.4446 48.0203 44.5999C49.8267 44.4433 51.5525 43.7814 53.0003 42.6899Z" fill="#1A1A1A"/>
<path d="M50.1696 39.9999C50.4174 40.0156 50.6644 39.9571 50.8788 39.8319C51.0933 39.7066 51.2656 39.5204 51.3737 39.2968C51.4819 39.0732 51.521 38.8225 51.4861 38.5766C51.4511 38.3307 51.3437 38.1008 51.1776 37.9162C51.0115 37.7316 50.7941 37.6007 50.5532 37.5402C50.3124 37.4796 50.059 37.4922 49.8253 37.5763C49.5916 37.6604 49.3882 37.8121 49.2412 38.0123C49.0941 38.2124 49.01 38.4518 48.9996 38.6999C48.9832 39.0273 49.0971 39.3478 49.3164 39.5914C49.5356 39.835 49.8424 39.9819 50.1696 39.9999Z" fill="white"/>
<path d="M47.5698 38.36C47.7352 38.3639 47.898 38.3184 48.0373 38.2292C48.1766 38.14 48.2861 38.0112 48.3517 37.8594C48.4173 37.7075 48.436 37.5395 48.4055 37.3769C48.3749 37.2143 48.2965 37.0646 48.1803 36.9469C48.064 36.8292 47.9152 36.749 47.753 36.7164C47.5909 36.6839 47.4226 36.7005 47.27 36.7643C47.1173 36.828 46.9872 36.9359 46.8963 37.0741C46.8054 37.2123 46.7579 37.3745 46.7598 37.54C46.7598 37.7557 46.8448 37.9628 46.9964 38.1163C47.1481 38.2698 47.3541 38.3573 47.5698 38.36Z" fill="white"/>
<path d="M42.7197 50.53C42.7197 50.53 52.1997 50.85 55.1797 49.36C58.1597 47.87 59.4397 46.36 59.8697 44.46" stroke="#1A1A1A" stroke-miterlimit="10"/>
<path d="M42.0997 48.6101H39.1397C38.3334 48.6101 37.6797 49.2638 37.6797 50.0701V50.6501C37.6797 51.4564 38.3334 52.1101 39.1397 52.1101H42.0997C42.906 52.1101 43.5597 51.4564 43.5597 50.6501V50.0701C43.5597 49.2638 42.906 48.6101 42.0997 48.6101Z" fill="#1A1A1A"/>
</svg>
