<svg width="136" height="30" viewBox="0 0 136 30" fill="none" xmlns="http://www.w3.org/2000/svg">
<g clip-path="url(#clip0_1811_17)">
<path d="M67.5944 16.7839C67.5944 26.0542 63.1807 30 49.5203 30C35.86 30 31.4463 26.0542 31.4463 16.7839C31.4463 7.5136 39.5368 0 49.5203 0C59.5039 0 67.5944 7.51632 67.5944 16.7839Z" fill="#A5E15F"/>
<path d="M49.5203 1.63162C58.5988 1.63162 65.9923 8.43002 65.9923 16.7839C65.9923 21.1349 64.983 23.8352 62.7188 25.562C60.2115 27.4656 56.0168 28.3684 49.5203 28.3684C43.0239 28.3684 38.8399 27.4764 36.3219 25.562C34.0577 23.8352 33.0484 21.1294 33.0484 16.7839C33.0484 8.43002 40.4366 1.63162 49.5203 1.63162V1.63162ZM49.5203 0C39.5368 0 31.4463 7.51632 31.4463 16.7839C31.4463 26.0515 35.86 30 49.5203 30C63.1807 30 67.5944 26.0542 67.5944 16.7839C67.5944 7.5136 59.5013 0 49.5203 0Z" fill="white"/>
<path d="M57.0014 8.82982C53.111 9.235 52.5823 12.7593 49.6158 12.7919C46.6493 12.8246 46.0058 9.21869 42.0087 8.82982C41.5307 8.78359 39.1596 8.57148 37.2505 10.1188C34.4843 12.3623 34.7219 16.8465 34.8901 18.2905C34.8901 18.2905 38.0328 21.1512 41.2984 21.1839C43.5493 21.2084 45.9738 19.8242 47.2715 18.9703C47.9274 18.5287 48.696 18.2924 49.4823 18.2905H49.5117C50.2989 18.2923 51.0683 18.5286 51.7252 18.9703C55.5622 21.5238 56.155 21.1458 57.6956 21.1839C60.8998 21.2872 64.1039 18.2905 64.1039 18.2905C64.8035 14.9973 63.9144 11.8102 61.7435 10.1188C59.781 8.57691 57.3886 8.79175 57.0014 8.82982Z" fill="#56CA45"/>
<path d="M36.8501 17.3495C36.8501 17.3495 35.782 10.8883 41.2878 10.5973C46.7936 10.3064 46.5346 15.9164 46.361 17.3495C46.361 17.3495 44.1208 19.389 41.7818 19.4135C39.4427 19.438 36.8501 17.3495 36.8501 17.3495Z" fill="#1A1A1A"/>
<path d="M39.8381 15.1985C40.4471 15.1985 40.9409 14.6956 40.9409 14.0754C40.9409 13.4551 40.4471 12.9523 39.8381 12.9523C39.2291 12.9523 38.7354 13.4551 38.7354 14.0754C38.7354 14.6956 39.2291 15.1985 39.8381 15.1985Z" fill="white"/>
<path d="M42.1877 13.7654C42.5917 13.7654 42.9193 13.4318 42.9193 13.0203C42.9193 12.6087 42.5917 12.2751 42.1877 12.2751C41.7836 12.2751 41.4561 12.6087 41.4561 13.0203C41.4561 13.4318 41.7836 13.7654 42.1877 13.7654Z" fill="white"/>
<path d="M62.1894 17.3495C62.1894 17.3495 63.2574 10.8883 57.7517 10.5973C52.2459 10.3064 52.5049 15.9164 52.6784 17.3495C52.6784 17.3495 54.9187 19.389 57.2577 19.4135C59.5967 19.438 62.1894 17.3495 62.1894 17.3495Z" fill="#1A1A1A"/>
<path d="M59.2024 15.1985C59.8114 15.1985 60.3051 14.6956 60.3051 14.0754C60.3051 13.4551 59.8114 12.9523 59.2024 12.9523C58.5933 12.9523 58.0996 13.4551 58.0996 14.0754C58.0996 14.6956 58.5933 15.1985 59.2024 15.1985Z" fill="white"/>
<path d="M56.8527 13.7654C57.2568 13.7654 57.5843 13.4318 57.5843 13.0203C57.5843 12.6087 57.2568 12.2751 56.8527 12.2751C56.4487 12.2751 56.1211 12.6087 56.1211 13.0203C56.1211 13.4318 56.4487 13.7654 56.8527 13.7654Z" fill="white"/>
<path d="M31.3877 0.908203V2.19719L19.9543 18.1789V29.0917H11.4766V18.1789L-0.00488281 2.19719V0.908203H8.85458L15.7301 10.8312L22.5657 0.908203H31.3877Z" fill="white"/>
<path d="M87.6952 0.908203C93.0675 0.908203 97.1109 2.07481 99.8256 4.40802C102.54 6.74123 103.897 10.2293 103.895 14.8721V15.1713C103.895 24.4533 98.495 29.0935 87.6952 29.0917H73.0977V0.908203H87.6952ZM93.476 19.9437C94.6491 19.0046 95.2356 17.4573 95.2356 15.3018V14.7851C95.2356 12.6658 94.6242 11.1122 93.4013 10.1241C92.1783 9.13609 90.2585 8.64207 87.6418 8.64207H81.578V21.3578H87.6952C90.3689 21.3578 92.2958 20.8855 93.476 19.941V19.9437Z" fill="white"/>
<path d="M136 27.8027V29.0917H127.723L125.91 24.4524H113.766L111.953 29.0917H103.676V27.8027L115.157 0.908203H124.521L136 27.8027ZM123.09 17.3196L119.843 9.11251L116.597 17.3196H123.09Z" fill="white"/>
</g>
<defs>
<clipPath id="clip0_1811_17">
<rect width="136" height="30" fill="white"/>
</clipPath>
</defs>
</svg>
